# xmcd
#
# Track frame offsets: 
#        150
#        13486
#        29682
#        40923
#        57609
#        79514
#        91028
#        109097
#        121918
#        136803
#        154588
#
# Disc length: 2296 seconds
#
# Revision: 0
# Processed by: cddbd v1.5.2PL0 Copyright (c) Steve Scherf et al.
# Submitted via: ExactAudioCopy v1.3
#
DISCID=8908f60b
DTITLE=Ally Venable - Texas Honey
DYEAR=2018
DGENRE=Blues Rock
TTITLE0=Nowhere To Hide
TTITLE1=Broken
TTITLE2=Texas Honey
TTITLE3=Blind To Bad Love
TTITLE4=Come And Take It
TTITLE5=Love Struck Baby
TTITLE6=One Sided Misunderstanding
TTITLE7=White Flag
TTITLE8=Long Way Home
TTITLE9=Running After You
TTITLE10=Careless Love
EXTD=
EXTT0=
EXTT1=
EXTT2=
EXTT3=
EXTT4=
EXTT5=
EXTT6=
EXTT7=
EXTT8=
EXTT9=
EXTT10=
PLAYORDER=
